<svg xmlns="http://www.w3.org/2000/svg" id="Layer_2" data-name="Layer 2" viewBox="0 0 1562.78 529.8"><defs><style>      .cls-1 {        fill: #fff;      }      .cls-2 {        fill: #ff6800;      }    </style></defs><g id="Layer_1-2" data-name="Layer 1"><g><g><g><g><path class="cls-2" d="m12.13,109.72l43.94,43.94,14.92,14.92c24.31,24.31,63.65,24.31,87.95,0l96.91-96.87c16.24-16.28,16.24-42.65,0-58.93-8.14-8.14-18.81-12.19-29.45-12.19-10.32,0-20.68,3.82-28.67,11.45-.23.27-.47.55-.74.78l-91.85,91.85-5.22,5.22c-.47.47-.93.9-1.4,1.32-24.38,22.83-62.63,22.32-86.39-1.48Z"></path><circle class="cls-2" cx="55.53" cy="50.81" r="50.81"></circle></g><path class="cls-2" d="m260.62,280.71l-43.94-43.94-14.92-14.92c-24.31-24.31-63.65-24.31-87.95,0l-96.91,96.87c-16.24,16.28-16.24,42.65,0,58.93,8.14,8.14,18.81,12.19,29.45,12.19,10.32,0,20.68-3.82,28.67-11.45.23-.27.47-.55.74-.78l91.85-91.85,5.22-5.22c.47-.47.93-.9,1.4-1.32,24.38-22.83,62.63-22.32,86.39,1.48Z"></path></g><g><path class="cls-1" d="m727.86,157.98l-53.45,73,61,80.69h-59.96l-55.23-78.47h-.59v78.47h-50.34V78.18h50.34v152.21h.59l50.05-72.4h57.59Z"></path><path class="cls-1" d="m436.22,314.75c-29.06,0-52.44-7.57-70.16-22.72-17.71-15.14-27.9-36.27-30.57-63.38h54.06c1.54,13.55,6.52,24.16,14.94,31.8,8.42,7.65,19.41,11.48,32.96,11.48s23.77-2.52,31.26-7.55,11.24-12.07,11.24-21.1c0-3.49-.59-6.62-1.77-9.4-1.18-2.77-3.14-5.13-5.85-7.09-2.72-1.95-5.42-3.59-8.09-4.93-2.67-1.33-6.37-2.51-11.09-3.54-4.72-1.02-8.81-1.82-12.24-2.39-3.44-.56-8.09-1.26-13.94-2.08-20.33-2.87-35.12-5.9-44.36-9.09-20.74-7.29-33.48-19.81-38.2-37.58-1.54-5.75-2.31-12.06-2.31-18.95,0-23.72,8.24-41.84,24.72-54.37,16.48-12.53,39.61-18.79,69.39-18.79,26.49,0,47.9,7.27,64.23,21.79,16.33,14.53,25.82,34.73,28.49,60.61h-53.91c-.92-12.42-5.08-22.1-12.48-29.03s-17.25-10.4-29.57-10.4c-10.99,0-19.61,2.23-25.88,6.7-6.27,4.47-9.4,10.7-9.4,18.71,0,2.98.54,5.65,1.62,8.01,1.08,2.36,2.93,4.42,5.54,6.16,2.62,1.75,5.11,3.18,7.47,4.31,2.36,1.13,5.85,2.18,10.47,3.16,4.62.98,8.42,1.72,11.4,2.23,2.98.51,7.39,1.18,13.24,2,7.5,1.13,13.35,2.03,17.56,2.69,4.21.67,9.86,1.87,16.94,3.62,7.09,1.75,12.73,3.59,16.94,5.54,4.21,1.95,8.93,4.65,14.17,8.09,5.24,3.44,9.29,7.27,12.17,11.47,2.87,4.21,5.32,9.4,7.32,15.56,2,6.16,3,13.04,3,20.64,0,24.44-8.75,43.51-26.26,57.22-17.51,13.71-41.87,20.56-73.08,20.56Z"></path><rect class="cls-2" x="756.37" y="78.23" width="52.37" height="43.59"></rect><rect class="cls-1" x="756.37" y="148.56" width="52.37" height="163.11"></rect><polygon class="cls-1" points="896.99 88.18 896.99 311.66 844.63 311.66 844.63 140.54 896.99 88.18"></polygon><path class="cls-1" d="m1420.97,231.58v5.7h-111.97c.62,12.22,3.64,21.69,9.09,28.42,5.44,6.73,12.83,10.09,22.18,10.09,7.7,0,14.25-1.95,19.64-5.85,5.39-3.9,8.96-9.24,10.7-16.02h50.37c-2.98,19.1-11.6,34.01-25.88,44.74-14.27,10.73-32.55,16.09-54.83,16.09-25.88,0-46-7.32-60.38-21.95-14.38-14.63-21.56-35.04-21.56-61.22s7.18-46.57,21.56-61.15c14.37-14.58,34.5-21.87,60.38-21.87s45.28,7.29,59.45,21.87c14.17,14.58,21.26,34.96,21.26,61.15Zm-80.71-44.2c-8.73,0-15.81,3.03-21.26,9.09-5.44,6.06-8.68,14.58-9.7,25.57h60.99c-1.23-11.09-4.41-19.64-9.55-25.64-5.14-6.01-11.96-9.01-20.49-9.01Z"></path><polygon class="cls-1" points="985.22 0 985.22 311.66 932.85 311.66 932.85 52.36 981.82 3.4 983.52 1.7 985.22 0"></polygon><path class="cls-1" d="m1509.74,187.08v66.19c0,6.4,2.03,11.35,6.1,14.9,4.14,3.55,9.77,5.28,17.01,5.28s14.21-1.69,20.48-5.08v38.53c-11.13,5.26-23.55,7.86-37.29,7.86-18.4,0-32.75-4.76-43.14-14.26-10.39-9.52-15.57-22.71-15.57-39.67v-73.75h-20.78v-35.28h20.73v-73.63h52.38v73.63h46.41v35.28h-46.34Z"></path><path class="cls-1" d="m1062.76,78.23l115.36,160.37-.67-160.37h45.01v233.38h-41.01l-116.02-160.7.67,160.7h-45.01V78.23h41.67Z"></path></g><g><path class="cls-1" d="m363.84,341.78v53.4h31.55v11.95h-46.49v-65.35h14.94Z"></path><path class="cls-1" d="m554.83,341.78v11.86h-33.79v14.47h30.71v11.76h-30.71v15.4h34.35v11.86h-49.29v-65.35h48.73Z"></path><path class="cls-1" d="m730.05,407.13h-15.22l-5.32-15.31h-24.83l-5.13,15.31h-14.84l24.18-65.35h16.52l24.65,65.35Zm-24.65-26.98l-8.5-24.46-8.31,24.46h16.8Z"></path><path class="cls-1" d="m840.11,341.78h29.97c14.75,0,22.96,8.03,22.96,22.12,0,10.18-4.2,17.18-11.95,20.35l12.88,22.87h-15.87l-11.48-21h-11.58v21h-14.94v-65.35Zm27.91,32.58c6.53.09,9.99-4.11,9.99-10.36s-3.64-10.36-10.18-10.36h-12.79v20.54l12.98.19Z"></path><path class="cls-1" d="m1019.34,341.78l29.5,41.45-.37-41.45h14.84v65.35h-13.26l-29.69-41.54.37,41.54h-14.94v-65.35h13.54Z"></path><path class="cls-1" d="m1192.88,341.78v65.35h-14.94v-65.35h14.94Z"></path><path class="cls-1" d="m1321.04,341.78l29.5,41.45-.37-41.45h14.84v65.35h-13.26l-29.69-41.54.37,41.54h-14.94v-65.35h13.54Z"></path><path class="cls-1" d="m1543.5,407.13h-10.55l-1.31-7c-4.76,5.79-12.42,8.78-22.78,8.78-19.6,0-30.81-11.58-30.81-34.45s11.39-34.45,33.7-34.45c18.3,0,28.66,8.03,31.55,23.9h-15.31c-1.87-7.84-7.38-12.14-16.62-12.14-12.14,0-18.2,7.38-18.2,22.68s6.16,22.87,18.86,22.87c10.36,0,16.43-4.95,17.46-13.54h-16.99v-11.39h30.99v34.73Z"></path></g></g><g><path class="cls-2" d="m41.41,456.89v10.08H12.69v12.3h26.1v10H12.69v13.09h29.19v10.08H0v-55.53h41.41Z"></path><path class="cls-2" d="m105.27,479.74c-6.43,0-9.52,3.73-9.52,12.77v19.91h-11.98v-40.62h9.36l2.14,4.2c2.94-3.57,7.62-5.71,14.44-5.71,11.03,0,15.47,4.84,15.47,17.06v25.07h-11.98v-21.58c0-7.62-1.75-11.11-7.93-11.11Z"></path><path class="cls-2" d="m188.34,478.31c-5.24,0-7.69,1.75-7.85,6.66h-11.82c-.48-9.76,6.27-14.68,19.99-14.68s18.96,5.24,18.96,17.13v24.99h-8.49l-2.06-4.28c-2.54,3.41-6.74,5.79-13.41,5.79-8.33,0-16.34-3.73-16.34-13.17,0-8.65,6.66-12.69,19.99-12.77,2.62,0,5.47,0,8.57-.16v-1.19c0-6.19-1.75-8.33-7.54-8.33Zm-2.06,27.92c6.98,0,9.76-5,9.44-11.42-2.62.08-5,.08-7.38.16-6.11.16-8.88,1.98-8.88,5.79,0,3.57,2.38,5.47,6.82,5.47Z"></path><path class="cls-2" d="m250.85,512.42v-55.53h11.98v17.93c2.94-2.78,7.14-4.52,12.93-4.52,12.93,0,18.88,7.77,18.88,21.82s-5.79,21.82-18.33,21.82c-6.82,0-11.5-2.38-14.6-6.19l-2.46,4.68h-8.41Zm21.58-7.22c6.74,0,10.08-3.97,10.08-13.09s-3.33-13.09-10-13.09-10,3.49-10,13.09,3.57,13.09,9.92,13.09Z"></path><path class="cls-2" d="m336.37,456.89h11.98v55.53h-11.98v-55.53Z"></path><path class="cls-2" d="m391.67,456.89h11.98v8.88h-11.98v-8.88Zm0,14.91h11.98v40.62h-11.98v-40.62Z"></path><path class="cls-2" d="m468.3,479.74c-6.43,0-9.52,3.73-9.52,12.77v19.91h-11.98v-40.62h9.36l2.14,4.2c2.94-3.57,7.62-5.71,14.44-5.71,11.03,0,15.47,4.84,15.47,17.06v25.07h-11.98v-21.58c0-7.62-1.75-11.11-7.93-11.11Z"></path><path class="cls-2" d="m530.18,490.77c0-13.41,5.79-20.31,18.17-20.31,6.98,0,11.5,2.46,14.44,5.71l2.3-4.36h8.89v38.4c0,13.09-7.3,19.59-22.05,19.59s-21.02-5.55-20.63-15.95h12.22c.32,5.79,3.81,7.85,8.96,7.85,5.71,0,9.36-2.78,9.52-10.87v-4.76c-2.86,2.78-7.14,4.68-13.25,4.68-12.85,0-18.56-6.66-18.56-19.99Zm21.97,11.74c6.19,0,10.15-3.25,10.15-11.74s-3.97-11.66-10.15-11.66-9.84,2.93-9.84,11.66,3.81,11.74,9.84,11.74Z"></path><path class="cls-2" d="m671.71,456.89h39.51v10.15h-26.81v13.17h23.16v10.08h-23.16v22.13h-12.69v-55.53Z"></path><path class="cls-2" d="m791.98,512.42h-9.36l-2.06-4.12c-3.01,3.49-7.62,5.63-14.44,5.63-10.79,0-15.07-4.76-15.07-17.06v-25.07h11.98v21.82c0,7.38,1.75,10.87,7.7,10.87,6.27,0,9.28-3.73,9.28-12.77v-19.91h11.98v40.62Z"></path><path class="cls-2" d="m838.95,499.33v-18.72h-6.51v-8.81h6.51l.71-9.12h11.26v9.12h9.28v8.81h-9.28v17.06c0,6.27,1.59,7.06,6.74,6.98h2.54v7.77c-19.36,1.98-21.26-4.28-21.26-13.09Z"></path><path class="cls-2" d="m942.32,512.42h-9.36l-2.06-4.12c-3.01,3.49-7.62,5.63-14.44,5.63-10.79,0-15.07-4.76-15.07-17.06v-25.07h11.98v21.82c0,7.38,1.75,10.87,7.7,10.87,6.27,0,9.28-3.73,9.28-12.77v-19.91h11.98v40.62Z"></path><path class="cls-2" d="m997.45,492.99v19.44h-11.98v-40.62h9.92l1.82,5.79c2.38-4.12,6.35-7.22,12.77-7.22,1.27,0,1.9.16,2.62.32v11.26c-7.85-1.43-15.15,1.27-15.15,11.03Z"></path><path class="cls-2" d="m1072.98,513.93c-15.15,0-21.97-7.85-21.97-21.82s6.9-21.82,21.74-21.82,21.02,7.77,21.02,21.42c0,1.11,0,2.38-.4,3.25h-30.22c.56,7.7,3.81,10.63,10.23,10.63,4.6,0,7.77-1.83,8.65-6.19h11.9c-.71,8.57-8.01,14.52-20.94,14.52Zm8.88-25.86c-.32-6.35-3.01-9.44-9.12-9.44-5.71,0-8.65,2.86-9.44,9.44h18.56Z"></path><path class="cls-2" d="m1212.37,455.38c15.87,0,22.77,6.9,22.45,19.04h-12.61c0-5.95-3.01-9.12-10.07-9.12-5.55,0-8.81,2.22-8.81,5.79,0,11.26,33.08,3.49,33.08,26.1,0,10.71-7.38,16.74-22.69,16.74-17.13,0-24.67-6.11-24.43-19.12h12.85c-.16,5.79,3.25,9.12,11.42,9.12,6.74,0,10.15-2.38,10.15-6.5,0-12.3-33.08-3.17-33.08-25.31,0-11.03,7.62-16.74,21.74-16.74Z"></path><path class="cls-2" d="m1279.01,456.89h11.98v29.99l14.44-15.07h14.28l-15.95,16.34,16.1,24.28h-13.33l-10.23-16.66-5.32,5.47v11.19h-11.98v-55.53Z"></path><path class="cls-2" d="m1359.29,456.89h11.98v8.88h-11.98v-8.88Zm0,14.91h11.98v40.62h-11.98v-40.62Z"></path><path class="cls-2" d="m1414.59,456.89h11.98v55.53h-11.98v-55.53Z"></path><path class="cls-2" d="m1470.04,456.89h11.98v55.53h-11.98v-55.53Z"></path><path class="cls-2" d="m1543.18,470.3c12.77,0,18.33,4.44,18.33,14.12h-11.74c-.08-3.97-1.67-6.19-6.82-6.19-4.2,0-5.95,1.75-5.95,3.97,0,8.25,25.78,2.22,25.78,19.36,0,8.41-6.35,12.46-18.88,12.46-13.64,0-19.91-4.68-19.67-14.44h12.06c-.16,3.57,1.98,6.35,7.93,6.35,4.44,0,6.58-1.43,6.58-3.89,0-8.49-25.7-2.7-25.7-19.36,0-8.01,5.87-12.38,18.09-12.38Z"></path></g></g></g></svg>